# xmcd
#
# Track frame offsets: 
#        150
#        11569
#        24950
#        36807
#        46207
#        56837
#        66263
#        80764
#        93022
#        102293
#        115385
#        126814
#        136652
#        145846
#        156286
#        170615
#        182810
#        194326
#        205281
#        215928
#        226979
#        237420
#        248118
#        260959
#
# Disc length: 3645 seconds
#
# Revision: 0
# Processed by: cddbd v1.5.2PL0 Copyright (c) Steve Scherf et al.
# Submitted via: ExactAudioCopy v0.95b3
#
DISCID=600e3b18
DTITLE=The Stanley Brothers and The Clinch Mountain Boys - Bluegrass Bes
DTITLE=t
DYEAR=2006
DGENRE=Bluegrass
TTITLE0=Orange Blossom Special
TTITLE1=Who Will Call You Sweetheart
TTITLE2=A Voice From On High
TTITLE3=Big Tilda
TTITLE4=Angel Band
TTITLE5=Clinch Mountain Blues
TTITLE6=The Flood
TTITLE7=Poison Lies
TTITLE8=You're Still On My Mind
TTITLE9=The Cry From The Cross
TTITLE10=Tragic Love
TTITLE11=Fling Ding
TTITLE12=Daybreak In Dixie
TTITLE13=Blue Moon Of Kentucky
TTITLE14=I Long To See The Old Folks
TTITLE15=Our Last Goodbye
TTITLE16=Nobody's Love Is Like Mine
TTITLE17=So Blue
TTITLE18=Baby Girl
TTITLE19=Memories Of Mother
TTITLE20=Dickson County Breakdown
TTITLE21=Harbor Of Love
TTITLE22=Little Maggie
TTITLE23=Hard Times
EXTD=
EXTT0=
EXTT1=
EXTT2=
EXTT3=
EXTT4=
EXTT5=
EXTT6=
EXTT7=
EXTT8=
EXTT9=
EXTT10=
EXTT11=
EXTT12=
EXTT13=
EXTT14=
EXTT15=
EXTT16=
EXTT17=
EXTT18=
EXTT19=
EXTT20=
EXTT21=
EXTT22=
EXTT23=
PLAYORDER=
